<?xml version="1.0" encoding="utf-8"?>
<!-- Generator: Adobe Illustrator 27.2.0, SVG Export Plug-In . SVG Version: 6.00 Build 0)  -->
<svg version="1.1" id="Layer_1" xmlns="http://www.w3.org/2000/svg" xmlns:xlink="http://www.w3.org/1999/xlink" x="0px" y="0px"
	 viewBox="0 0 173.2 172.8" style="enable-background:new 0 0 173.2 172.8;" xml:space="preserve">
<style type="text/css">
	.st0{fill:#CCCCCC;}
	.st1{fill:#497F01;}
	.st2{fill:#78A041;}
	.st3{fill:#FFFFFF;}
</style>
<path class="st0" d="M86.6,5.7L86.6,5.7C42,5.7,5.9,41.8,5.9,86.4s36.2,80.8,80.8,80.8l0,0c44.6,0,80.8-36.2,80.8-80.8
	C167.4,41.8,131.2,5.7,86.6,5.7z"/>
<circle class="st1" cx="86.6" cy="86.4" r="64.1"/>
<path class="st2" d="M86.6,18.6L86.6,18.6c-37.5,0-67.8,30.4-67.8,67.8c0,37.5,30.4,67.8,67.8,67.8l0,0c37.5,0,67.8-30.4,67.8-67.8
	S124.1,18.6,86.6,18.6z"/>
<path class="st1" d="M86.6,15.5L86.6,15.5c-39.1,0-70.9,31.8-70.9,70.9s31.8,70.9,70.9,70.9l0,0c39.1,0,70.9-31.8,70.9-70.9
	S125.7,15.5,86.6,15.5z M86.6,150.5L86.6,150.5c-35.4,0-64.1-28.7-64.1-64.1s28.7-64.1,64.1-64.1l0,0c35.4,0,64.1,28.7,64.1,64.1
	S122,150.5,86.6,150.5z"/>
<path class="st3" d="M31.4,64.8c0.9,0.4,2,0,2.4-1c0.4-0.9-0.1-1.9-1-2.3c-0.9-0.4-1.9,0-2.3,0.9C30.1,63.4,30.4,64.4,31.4,64.8z
	 M131.4,100.7l1.6-4.2l-3.3-1.3l-4.7,12.3l3.3,1.3l1.5-4.1l11.3,4.3l1.5-4.1L131.4,100.7z M129.4,121.4l-2.1-1.6l3.9-4.9l-2.7-2.1
	l-3.9,4.9l-1.9-1.5l4.2-5.2l-2.7-2.2l-6.9,8.6l12.1,9.6l7.1-8.9l-2.7-2.2L129.4,121.4z M41.3,59.9c2.1,1.6,4.5,0.7,6.7-1
	c1.6-1.2,2.4-1.5,2.9-1.1c0.6,0.5,0.6,1.3-0.3,2.5c-1,1.4-2.5,2.4-3.5,2.9l2.4,2.8c0.9-0.5,2.6-1.8,3.8-3.4c2.9-4,2.2-7.1,0.1-8.6
	c-1.9-1.4-3.9-1.1-6.5,0.7c-1.7,1.3-2.5,1.9-3.2,1.4c-0.6-0.4-0.5-1.3,0.3-2.3c1-1.4,2.2-2.2,2.9-2.6l-2.1-2.8
	c-1.1,0.7-2.2,1.6-3.5,3.3C38.9,55,39,58.2,41.3,59.9z M60.9,53.9l-1.2-3.7l3.9-2.5l3,2.5l4-2.6L57.7,37.5l-5,3.2l4.4,15.7
	L60.9,53.9z M58.9,43.6l2.2,1.8l-2.6,1.8l-0.9-2.7c-0.3-0.8-0.7-1.9-1-2.8C57.3,42.3,58.2,43,58.9,43.6z M113.9,56.4L124,44.6
	l-3.3-2.8l-10.1,11.8L113.9,56.4z M99.6,42.3c0.4-2.3-0.8-3.9-3.6-5.4c-1.9-0.9-2.8-1.4-2.7-2.2c0.1-0.6,0.9-0.9,2.2-0.7
	c1.7,0.3,2.9,1,3.6,1.4l1.5-3.2c-1.1-0.7-2.4-1.3-4.5-1.7c-4-0.7-6.8,0.9-7.3,3.7c-0.4,2.6,1.5,4.3,4,5.5c1.8,0.8,2.4,1.3,2.3,2
	c-0.2,0.8-1,1.1-2.4,0.9c-1.7-0.3-3.3-1.1-4.2-1.8l-1.4,3.3c0.9,0.7,2.8,1.6,4.8,1.9C96.7,46.9,99.2,44.9,99.6,42.3z M109.9,52.6
	l1.7-3.2l-6-3.1l5.4-10.6l-3.9-2l-7,13.9L109.9,52.6z M75.3,46.6l-0.8-4.1c-0.4-2.3-0.8-4.5-1.4-6.8h0.1c1.3,1.9,2.8,3.7,4.1,5.3
	l3.7,4.5l4.7-0.9l-2.9-15.2l-4,0.8l0.8,4c0.4,2,0.8,3.9,1.5,6.1H81c-1.2-1.8-2.5-3.7-3.8-5.2l-3.4-3.9l-5.4,1l2.9,15.2L75.3,46.6z
	 M116.2,62.7L83.7,89.1l-9.5,7.7L61,80.6l-11.4,9.2l13.2,16.3l9.2,11.4l9.5-7.7l1.9-1.6l42.1-34.1L116.2,62.7z M91.2,141.6
	L91.2,141.6l6.3-10.4l-0.2-2.3l-12.6,1.4l0.4,3.5l6.8-0.8v0.1l-6.5,10.4l0.2,2.3l13.5-1.5l-0.4-3.5L91.2,141.6z M110,122.9l0.8,4
	c0.4,1.6,1,3.8,1.5,5.8h-0.1c-1.2-1.5-2.7-3.2-3.9-4.4l-2.8-2.9l-5.4,3l6.8,14l3.6-2l-2.6-5.2c-0.9-1.7-2-3.9-3.1-6
	c1.4,1.8,3.1,3.7,4.4,5.1l3.9,4.2l3-1.7l-1.3-5.7c-0.5-2-1-4.5-1.6-6.7h0.1c1.4,2.4,2.4,4.2,3.4,5.9l3,4.9l3.8-2.1l-8.2-13.2
	L110,122.9z M42.5,79.2l-11.7-2l-0.7,4.3l15.3,2.6l1.8-10.9l-3.6-0.6L42.5,79.2z M80.7,125.1c-1.1-0.2-2,0.5-2.1,1.5
	c-0.1,1,0.5,1.9,1.6,2c1,0.2,1.9-0.5,2-1.5C82.3,126.1,81.7,125.2,80.7,125.1z M35.3,62.1l-1.7,4l14.3,6l1.7-4L35.3,62.1z M69,132.6
	l-5.4-2.3l2.2-5.2l-4-1.7l-6.2,14.2l4,1.7l2.4-5.6l5.4,2.3l-2.4,5.6l4,1.7l6.2-14.2l-4-1.7L69,132.6z M75.8,144.6l4.3,0.6l2.1-15.4
	l-4.3-0.6L75.8,144.6z"/>
</svg>
